<svg width="150" height="150" viewBox="0 0 150 150" fill="none" xmlns="http://www.w3.org/2000/svg">
<rect width="150" height="150" rx="75" fill="#FFEFEF"/>
<path d="M74.6799 47.4262L55.1496 53.4376C48.0324 55.6282 44.9973 61.1449 46.7575 68.6911L51.5832 89.379C53.3434 96.9252 58.3731 99.9595 65.4903 97.7689L85.0206 91.7575C92.1378 89.5668 95.1543 84.0558 93.3941 76.5097L88.5684 55.8218C86.8082 48.2756 81.7971 45.2355 74.6799 47.4262Z" fill="url(#paint0_linear_42_54)"/>
<g opacity="0.5" filter="url(#filter0_f_42_54)">
<path d="M73.2831 56.6791L60.3824 60.6497C55.6812 62.0967 53.6446 65.6043 54.7512 70.3481L57.7849 83.3534C58.8915 88.0973 62.1821 89.9652 66.8833 88.5183L79.784 84.5476C84.4852 83.1007 86.5096 79.5969 85.403 74.853L82.3692 61.8477C81.2626 57.1039 77.9843 55.2322 73.2831 56.6791Z" fill="#E31313"/>
</g>
<g filter="url(#filter1_b_42_54)">
<path d="M87.5639 58.2966H69.1061C61.8891 58.2966 57.0352 63.8543 57.0352 72.1208V91.199C57.0352 99.4421 61.8891 105 69.1061 105H87.5639C94.781 105 99.6136 99.4421 99.6136 91.199V72.1208C99.6136 63.8543 94.781 58.2966 87.5639 58.2966Z" fill="#F03E3D"/>
<path d="M87.5639 57.7966H69.1061C65.3607 57.7966 62.203 59.243 59.9876 61.7799C57.7774 64.3109 56.5352 67.8916 56.5352 72.1208V91.199C56.5352 95.4168 57.7776 98.9917 59.9878 101.52C62.2031 104.053 65.3607 105.5 69.1061 105.5H87.5639C91.3095 105.5 94.4619 104.053 96.672 101.519C98.8768 98.991 100.114 95.4163 100.114 91.199V72.1208C100.114 67.8921 98.877 64.3116 96.6722 61.7804C94.4621 59.2431 91.3095 57.7966 87.5639 57.7966Z" stroke="url(#paint1_linear_42_54)" stroke-linecap="round" stroke-linejoin="round"/>
</g>
<g filter="url(#filter2_b_42_54)">
<path d="M101.872 54.8657C100.145 54.8657 98.7441 56.4019 98.7441 58.297C98.7441 60.192 100.145 61.7282 101.872 61.7282C103.6 61.7282 105.001 60.192 105.001 58.297C105.001 57.3869 104.671 56.5142 104.084 55.8707C103.498 55.2272 102.702 54.8657 101.872 54.8657Z" fill="url(#paint2_linear_42_54)"/>
</g>
<g filter="url(#filter3_bd_42_54)">
<path d="M89.4624 77.5129L83.3783 86.1245C83.1223 86.4988 82.7384 86.743 82.3147 86.801C81.8911 86.859 81.4641 86.7258 81.1319 86.4321L75.2911 81.4086L70.0307 88.872C69.6497 89.5355 68.9078 89.8337 68.2255 89.5974C67.5432 89.3612 67.0925 88.6501 67.129 87.8673C67.1259 87.48 67.2449 87.1034 67.466 86.8011L73.756 77.9025C74.0089 77.5312 74.3877 77.2871 74.8069 77.2254C75.2261 77.1636 75.6503 77.2895 75.9838 77.5744L81.8245 82.6184L86.9539 75.3805C87.2005 75.0073 87.5747 74.7596 87.991 74.6939C88.4073 74.6282 88.8301 74.7502 89.1629 75.0319C89.8504 75.6217 89.9833 76.7042 89.4624 77.4719V77.5129Z" fill="url(#paint3_linear_42_54)"/>
<path d="M83.215 86.0091L83.2149 86.0091L83.2132 86.0116C82.987 86.3425 82.6516 86.553 82.2876 86.6029C81.924 86.6526 81.5548 86.5391 81.2644 86.2822L81.2623 86.2804L75.4215 81.257L75.2545 81.1134L75.1276 81.2934L69.8672 88.7568L69.8619 88.7644L69.8572 88.7724C69.5199 89.3599 68.8748 89.6106 68.2909 89.4084C67.7018 89.2044 67.2959 88.5812 67.3288 87.8767L67.3291 87.8767L67.329 87.8657C67.3262 87.5198 67.4326 87.1855 67.6274 86.9192L67.6274 86.9192L67.6293 86.9166L73.9194 78.0179L73.9194 78.0179L73.9213 78.0151C74.1449 77.6868 74.4758 77.4763 74.8361 77.4232C75.1956 77.3703 75.5622 77.4774 75.8534 77.7261C75.8536 77.7262 75.8537 77.7263 75.8538 77.7265L81.6938 82.7697L81.8604 82.9136L81.9877 82.734L87.1171 75.4961L87.1172 75.4962L87.1208 75.4908C87.3385 75.1612 87.6651 74.9478 88.0222 74.8915C88.3786 74.8352 88.7431 74.9388 89.0331 75.1841C89.6401 75.7053 89.7627 76.6731 89.2969 77.3596L89.2624 77.4105V77.4494L83.215 86.0091Z" stroke="url(#paint4_linear_42_54)" stroke-width="0.4"/>
</g>
<defs>
<filter id="filter0_f_42_54" x="37.457" y="39.2012" width="65.2422" height="66.7954" filterUnits="userSpaceOnUse" color-interpolation-filters="sRGB">
<feFlood flood-opacity="0" result="BackgroundImageFix"/>
<feBlend mode="normal" in="SourceGraphic" in2="BackgroundImageFix" result="shape"/>
<feGaussianBlur stdDeviation="8.5" result="effect1_foregroundBlur_42_54"/>
</filter>
<filter id="filter1_b_42_54" x="32.0352" y="33.2966" width="92.5781" height="96.7031" filterUnits="userSpaceOnUse" color-interpolation-filters="sRGB">
<feFlood flood-opacity="0" result="BackgroundImageFix"/>
<feGaussianBlur in="BackgroundImageFix" stdDeviation="12"/>
<feComposite in2="SourceAlpha" operator="in" result="effect1_backgroundBlur_42_54"/>
<feBlend mode="normal" in="SourceGraphic" in2="effect1_backgroundBlur_42_54" result="shape"/>
</filter>
<filter id="filter2_b_42_54" x="83.7441" y="39.8657" width="36.2559" height="36.8625" filterUnits="userSpaceOnUse" color-interpolation-filters="sRGB">
<feFlood flood-opacity="0" result="BackgroundImageFix"/>
<feGaussianBlur in="BackgroundImageFix" stdDeviation="7.5"/>
<feComposite in2="SourceAlpha" operator="in" result="effect1_backgroundBlur_42_54"/>
<feBlend mode="normal" in="SourceGraphic" in2="effect1_backgroundBlur_42_54" result="shape"/>
</filter>
<filter id="filter3_bd_42_54" x="52.127" y="59.6765" width="52.6523" height="45.0012" filterUnits="userSpaceOnUse" color-interpolation-filters="sRGB">
<feFlood flood-opacity="0" result="BackgroundImageFix"/>
<feGaussianBlur in="BackgroundImageFix" stdDeviation="7.5"/>
<feComposite in2="SourceAlpha" operator="in" result="effect1_backgroundBlur_42_54"/>
<feColorMatrix in="SourceAlpha" type="matrix" values="0 0 0 0 0 0 0 0 0 0 0 0 0 0 0 0 0 0 127 0" result="hardAlpha"/>
<feOffset dx="5" dy="5"/>
<feGaussianBlur stdDeviation="5"/>
<feColorMatrix type="matrix" values="0 0 0 0 1 0 0 0 0 0.321569 0 0 0 0 0.54902 0 0 0 0.5 0"/>
<feBlend mode="normal" in2="effect1_backgroundBlur_42_54" result="effect2_dropShadow_42_54"/>
<feBlend mode="normal" in="SourceGraphic" in2="effect2_dropShadow_42_54" result="shape"/>
</filter>
<linearGradient id="paint0_linear_42_54" x1="73.8464" y1="74.6215" x2="39.4676" y2="102.315" gradientUnits="userSpaceOnUse">
<stop stop-color="#F03E3D"/>
<stop offset="1" stop-color="#870404"/>
</linearGradient>
<linearGradient id="paint1_linear_42_54" x1="63.813" y1="63.7376" x2="94.0654" y2="97.8969" gradientUnits="userSpaceOnUse">
<stop stop-color="white" stop-opacity="0.25"/>
<stop offset="1" stop-color="white" stop-opacity="0"/>
</linearGradient>
<linearGradient id="paint2_linear_42_54" x1="102.333" y1="58.7565" x2="96.6521" y2="61.2747" gradientUnits="userSpaceOnUse">
<stop stop-color="#FF759F" stop-opacity="0"/>
<stop offset="1" stop-color="#FF196E"/>
</linearGradient>
<linearGradient id="paint3_linear_42_54" x1="88.1741" y1="77.3854" x2="62.9748" y2="78.6261" gradientUnits="userSpaceOnUse">
<stop stop-color="white"/>
<stop offset="1" stop-color="white" stop-opacity="0.2"/>
</linearGradient>
<linearGradient id="paint4_linear_42_54" x1="70.733" y1="76.4242" x2="78.8736" y2="91.6495" gradientUnits="userSpaceOnUse">
<stop stop-color="white" stop-opacity="0.25"/>
<stop offset="1" stop-color="white" stop-opacity="0"/>
</linearGradient>
</defs>
</svg>
