<svg width="150" height="150" viewBox="0 0 150 150" fill="none" xmlns="http://www.w3.org/2000/svg">
<rect width="150" height="150" rx="75" fill="#F2F6FF"/>
<g filter="url(#filter0_b_34_364)">
<path d="M76.1403 47.3411L55.6853 53.1889C48.2312 55.3199 45.1394 61.033 47.1365 68.9854L52.6117 90.787C54.6088 98.7394 59.9637 102.038 67.4178 99.9066L87.8729 94.0588C95.327 91.9277 98.3994 86.2202 96.4022 78.2678L90.927 56.4662C88.9299 48.5139 83.5945 45.21 76.1403 47.3411Z" fill="url(#paint0_linear_34_364)"/>
</g>
<g opacity="0.5" filter="url(#filter1_f_34_364)">
<path d="M86.2195 75.9124L82.5049 60.8997C81.1575 55.4542 77.7853 53.0126 73.3514 54.2615L58.334 58.4913C53.8273 59.7607 52.0822 63.6437 53.4296 69.0892L57.1442 84.1019C58.5133 89.6351 61.8051 92.0036 66.3118 90.7343L81.3292 86.5044C85.7632 85.2555 87.5885 81.4456 86.2195 75.9124Z" fill="#11B5E4"/>
</g>
<g filter="url(#filter2_b_34_364)">
<mask id="path-4-outside-1_34_364" maskUnits="userSpaceOnUse" x="59.6602" y="56.626" width="48" height="51" fill="black">
<rect fill="white" x="59.6602" y="56.626" width="48" height="51"/>
<path d="M93.9231 57.626H72.7484C65.0321 57.626 60.6602 62.2906 60.6602 70.5235V93.0942C60.6602 101.327 65.0321 105.992 72.7484 105.992H93.9231C101.639 105.992 105.991 101.327 105.991 93.0942V70.5235C105.991 62.2906 101.639 57.626 93.9231 57.626Z"/>
</mask>
<path d="M93.9231 57.626H72.7484C65.0321 57.626 60.6602 62.2906 60.6602 70.5235V93.0942C60.6602 101.327 65.0321 105.992 72.7484 105.992H93.9231C101.639 105.992 105.991 101.327 105.991 93.0942V70.5235C105.991 62.2906 101.639 57.626 93.9231 57.626Z" fill="#00ACDD"/>
<path d="M93.9231 58.626C94.4754 58.626 94.9231 58.1783 94.9231 57.626C94.9231 57.0737 94.4754 56.626 93.9231 56.626V58.626ZM93.9231 56.626C93.3708 56.626 92.9231 57.0737 92.9231 57.626C92.9231 58.1783 93.3708 58.626 93.9231 58.626V56.626ZM93.9231 56.626H72.7484V58.626H93.9231V56.626ZM72.7484 56.626C68.6858 56.626 65.3718 57.8595 63.081 60.3035C60.7993 62.7381 59.6602 66.2381 59.6602 70.5235H61.6602C61.6602 66.576 62.707 63.6272 64.5403 61.6712C66.3646 59.7248 69.0947 58.626 72.7484 58.626V56.626ZM59.6602 70.5235V93.0942H61.6602V70.5235H59.6602ZM59.6602 93.0942C59.6602 97.3796 60.7993 100.88 63.081 103.314C65.3718 105.758 68.6858 106.992 72.7484 106.992V104.992C69.0947 104.992 66.3646 103.893 64.5403 101.946C62.707 99.9904 61.6602 97.0417 61.6602 93.0942H59.6602ZM72.7484 106.992H93.9231V104.992H72.7484V106.992ZM93.9231 106.992C97.9858 106.992 101.295 105.758 103.581 103.313C105.858 100.878 106.991 97.3784 106.991 93.0942H104.991C104.991 97.0428 103.949 99.9917 102.12 101.947C100.301 103.893 97.5767 104.992 93.9231 104.992V106.992ZM106.991 93.0942V70.5235H104.991V93.0942H106.991ZM106.991 70.5235C106.991 66.2392 105.858 62.7393 103.581 60.3044C101.295 57.8596 97.9858 56.626 93.9231 56.626V58.626C97.5767 58.626 100.301 59.7247 102.12 61.6703C103.949 63.626 104.991 66.5748 104.991 70.5235H106.991Z" fill="url(#paint1_linear_34_364)" mask="url(#path-4-outside-1_34_364)"/>
</g>
<g filter="url(#filter3_bd_34_364)">
<mask id="path-6-inside-2_34_364" fill="white">
<path fill-rule="evenodd" clip-rule="evenodd" d="M83.4057 67.5144C82.3782 67.5144 81.532 68.4172 81.532 69.535V94.0833C81.532 95.1796 82.3782 96.0824 83.4057 96.0824C84.4533 96.0824 85.2995 95.1796 85.2995 94.0833V69.535C85.2995 68.4172 84.4533 67.5144 83.4057 67.5144ZM72.8288 75.4471C71.8013 75.4471 70.9551 76.3499 70.9551 77.4677V94.084C70.9551 95.1803 71.8013 96.0831 72.8288 96.0831C73.8764 96.0831 74.7226 95.1803 74.7226 94.084V77.4677C74.7226 76.3499 73.8764 75.4471 72.8288 75.4471ZM91.9487 86.2378C91.9487 85.1201 92.7949 84.2172 93.8426 84.2172C94.8701 84.2172 95.7163 85.1201 95.7163 86.2378V94.0838C95.7163 95.1801 94.8701 96.083 93.8224 96.083C92.7949 96.083 91.9487 95.1801 91.9487 94.0838V86.2378Z"/>
</mask>
<path fill-rule="evenodd" clip-rule="evenodd" d="M83.4057 67.5144C82.3782 67.5144 81.532 68.4172 81.532 69.535V94.0833C81.532 95.1796 82.3782 96.0824 83.4057 96.0824C84.4533 96.0824 85.2995 95.1796 85.2995 94.0833V69.535C85.2995 68.4172 84.4533 67.5144 83.4057 67.5144ZM72.8288 75.4471C71.8013 75.4471 70.9551 76.3499 70.9551 77.4677V94.084C70.9551 95.1803 71.8013 96.0831 72.8288 96.0831C73.8764 96.0831 74.7226 95.1803 74.7226 94.084V77.4677C74.7226 76.3499 73.8764 75.4471 72.8288 75.4471ZM91.9487 86.2378C91.9487 85.1201 92.7949 84.2172 93.8426 84.2172C94.8701 84.2172 95.7163 85.1201 95.7163 86.2378V94.0838C95.7163 95.1801 94.8701 96.083 93.8224 96.083C92.7949 96.083 91.9487 95.1801 91.9487 94.0838V86.2378Z" fill="url(#paint2_linear_34_364)"/>
<path d="M81.932 69.535C81.932 68.6105 82.6258 67.9144 83.4057 67.9144V67.1144C82.1306 67.1144 81.132 68.224 81.132 69.535H81.932ZM81.932 94.0833V69.535H81.132V94.0833H81.932ZM83.4057 95.6824C82.6231 95.6824 81.932 94.9835 81.932 94.0833H81.132C81.132 95.3757 82.1332 96.4824 83.4057 96.4824V95.6824ZM84.8995 94.0833C84.8995 94.9806 84.2111 95.6824 83.4057 95.6824V96.4824C84.6956 96.4824 85.6995 95.3786 85.6995 94.0833H84.8995ZM84.8995 69.535V94.0833H85.6995V69.535H84.8995ZM83.4057 67.9144C84.2084 67.9144 84.8995 68.6133 84.8995 69.535H85.6995C85.6995 68.2211 84.6983 67.1144 83.4057 67.1144V67.9144ZM71.3551 77.4677C71.3551 76.5432 72.0489 75.8471 72.8288 75.8471V75.0471C71.5536 75.0471 70.5551 76.1567 70.5551 77.4677H71.3551ZM71.3551 94.084V77.4677H70.5551V94.084H71.3551ZM72.8288 95.6831C72.0462 95.6831 71.3551 94.9842 71.3551 94.084H70.5551C70.5551 95.3764 71.5563 96.4831 72.8288 96.4831V95.6831ZM74.3226 94.084C74.3226 94.9813 73.6342 95.6831 72.8288 95.6831V96.4831C74.1187 96.4831 75.1226 95.3793 75.1226 94.084H74.3226ZM74.3226 77.4677V94.084H75.1226V77.4677H74.3226ZM72.8288 75.8471C73.6315 75.8471 74.3226 76.546 74.3226 77.4677H75.1226C75.1226 76.1538 74.1213 75.0471 72.8288 75.0471V75.8471ZM93.8426 83.8172C92.55 83.8172 91.5487 84.924 91.5487 86.2378H92.3487C92.3487 85.3162 93.0399 84.6172 93.8426 84.6172V83.8172ZM96.1163 86.2378C96.1163 84.9268 95.1177 83.8172 93.8426 83.8172V84.6172C94.6225 84.6172 95.3163 85.3133 95.3163 86.2378H96.1163ZM96.1163 94.0838V86.2378H95.3163V94.0838H96.1163ZM93.8224 96.483C95.1123 96.483 96.1163 95.3791 96.1163 94.0838H95.3163C95.3163 94.9812 94.6278 95.683 93.8224 95.683V96.483ZM91.5487 94.0838C91.5487 95.3762 92.55 96.483 93.8224 96.483V95.683C93.0399 95.683 92.3487 94.984 92.3487 94.0838H91.5487ZM91.5487 86.2378V94.0838H92.3487V86.2378H91.5487Z" fill="url(#paint3_linear_34_364)" mask="url(#path-6-inside-2_34_364)"/>
</g>
<defs>
<filter id="filter0_b_34_364" x="33.543" y="33.7083" width="76.4551" height="79.8315" filterUnits="userSpaceOnUse" color-interpolation-filters="sRGB">
<feFlood flood-opacity="0" result="BackgroundImageFix"/>
<feGaussianBlur in="BackgroundImageFix" stdDeviation="6.5"/>
<feComposite in2="SourceAlpha" operator="in" result="effect1_backgroundBlur_34_364"/>
<feBlend mode="normal" in="SourceGraphic" in2="effect1_backgroundBlur_34_364" result="shape"/>
</filter>
<filter id="filter1_f_34_364" x="39.9863" y="40.9412" width="59.6797" height="63.1279" filterUnits="userSpaceOnUse" color-interpolation-filters="sRGB">
<feFlood flood-opacity="0" result="BackgroundImageFix"/>
<feBlend mode="normal" in="SourceGraphic" in2="BackgroundImageFix" result="shape"/>
<feGaussianBlur stdDeviation="6.5" result="effect1_foregroundBlur_34_364"/>
</filter>
<filter id="filter2_b_34_364" x="44.6602" y="41.626" width="77.332" height="80.3657" filterUnits="userSpaceOnUse" color-interpolation-filters="sRGB">
<feFlood flood-opacity="0" result="BackgroundImageFix"/>
<feGaussianBlur in="BackgroundImageFix" stdDeviation="7.5"/>
<feComposite in2="SourceAlpha" operator="in" result="effect1_backgroundBlur_34_364"/>
<feBlend mode="normal" in="SourceGraphic" in2="effect1_backgroundBlur_34_364" result="shape"/>
</filter>
<filter id="filter3_bd_34_364" x="55.9551" y="52.5144" width="54.7617" height="58.5688" filterUnits="userSpaceOnUse" color-interpolation-filters="sRGB">
<feFlood flood-opacity="0" result="BackgroundImageFix"/>
<feGaussianBlur in="BackgroundImageFix" stdDeviation="7.5"/>
<feComposite in2="SourceAlpha" operator="in" result="effect1_backgroundBlur_34_364"/>
<feColorMatrix in="SourceAlpha" type="matrix" values="0 0 0 0 0 0 0 0 0 0 0 0 0 0 0 0 0 0 127 0" result="hardAlpha"/>
<feOffset dx="5" dy="5"/>
<feGaussianBlur stdDeviation="5"/>
<feColorMatrix type="matrix" values="0 0 0 0 1 0 0 0 0 0.447059 0 0 0 0 0.368627 0 0 0 0.5 0"/>
<feBlend mode="normal" in2="effect1_backgroundBlur_34_364" result="effect2_dropShadow_34_364"/>
<feBlend mode="normal" in="SourceGraphic" in2="effect2_dropShadow_34_364" result="shape"/>
</filter>
<linearGradient id="paint0_linear_34_364" x1="75.7789" y1="75.8334" x2="40.4732" y2="104.53" gradientUnits="userSpaceOnUse">
<stop stop-color="#11B5E4"/>
<stop offset="1" stop-color="#035B81"/>
</linearGradient>
<linearGradient id="paint1_linear_34_364" x1="67.8761" y1="63.2606" x2="99.0892" y2="99.4933" gradientUnits="userSpaceOnUse">
<stop stop-color="white" stop-opacity="0.25"/>
<stop offset="1" stop-color="white" stop-opacity="0"/>
</linearGradient>
<linearGradient id="paint2_linear_34_364" x1="64.5457" y1="88.7187" x2="77.4089" y2="113.486" gradientUnits="userSpaceOnUse">
<stop stop-color="white"/>
<stop offset="1" stop-color="white" stop-opacity="0.2"/>
</linearGradient>
<linearGradient id="paint3_linear_34_364" x1="74.8966" y1="70.8427" x2="93.4923" y2="90.8043" gradientUnits="userSpaceOnUse">
<stop stop-color="white" stop-opacity="0.25"/>
<stop offset="1" stop-color="white" stop-opacity="0"/>
</linearGradient>
</defs>
</svg>
