<svg width="159" height="50" viewBox="0 0 159 50" fill="none" xmlns="http://www.w3.org/2000/svg">
<g clip-path="url(#clip0_34_1670)">
<path d="M45.581 35.4363C45.3316 34.8269 45.0978 34.1863 44.8484 33.6394L43.6949 31.03L43.6481 30.9831C40.2187 23.4831 36.5554 15.8581 32.674 8.35813L32.5181 8.04563C32.1284 7.31125 31.7387 6.49875 31.3334 5.74875C30.8346 4.85813 30.3513 3.905 29.5563 2.99875C28.7814 2.05052 27.8061 1.28655 26.7009 0.761964C25.5957 0.237381 24.388 -0.034729 23.1651 -0.034729C21.9423 -0.034729 20.7346 0.237381 19.6294 0.761964C18.5242 1.28655 17.5489 2.05052 16.774 2.99875C16.0413 3.905 15.4957 4.85813 14.9969 5.74875C14.6072 6.56125 14.2175 7.35813 13.8122 8.0925L13.6563 8.405C9.83721 15.905 6.11162 23.53 2.68221 31.03L2.58868 31.1238C2.24574 31.9363 1.84045 32.78 1.45074 33.6863C1.20133 34.2331 0.951917 34.8269 0.702505 35.4831C0.0291444 37.2015 -0.185881 39.0662 0.0786208 40.8933C0.343123 42.7203 1.07802 44.4468 2.21089 45.9025C3.34376 47.3582 4.8355 48.4929 6.53909 49.1948C8.24268 49.8966 10.0993 50.1414 11.926 49.905C13.6773 49.6739 15.3637 49.0892 16.8831 48.1863C18.9096 47.0456 20.8581 45.3894 23.0404 42.9988C25.2228 45.3894 27.2181 47.0456 29.1978 48.2019C31.1016 49.322 33.2575 49.9402 35.4643 49.9988C38.0197 50.0094 40.4927 49.0929 42.4267 47.4186C44.3607 45.7443 45.625 43.4252 45.9863 40.8894C46.4038 39.0672 46.2626 37.161 45.581 35.4206V35.4363ZM23.1963 38.03C20.5152 34.5925 18.7693 31.4363 18.1769 28.7331C17.9315 27.7315 17.8786 26.6921 18.021 25.6706C18.1302 24.8738 18.4263 24.1706 18.8316 23.5769C19.7669 22.2175 21.4037 21.3738 23.1963 21.3738C24.0477 21.3477 24.8921 21.5339 25.6539 21.9157C26.4157 22.2975 27.071 22.8629 27.561 23.5613C27.9663 24.1863 28.2625 24.8738 28.356 25.6706C28.5119 26.5769 28.4496 27.6238 28.2002 28.7331C27.6078 31.3894 25.8619 34.5769 23.1963 38.03ZM43.0557 40.3425C42.8786 41.6299 42.3681 42.8483 41.5749 43.8764C40.7817 44.9044 39.7337 45.7062 38.5351 46.2019C37.3504 46.7019 36.041 46.8425 34.7628 46.7019C33.5157 46.5456 32.2687 46.1394 30.9904 45.3894C28.8681 44.0745 26.9597 42.4409 25.3319 40.5456C28.6054 36.4831 30.5852 32.78 31.3334 29.4831C31.6919 27.9206 31.7387 26.5144 31.5828 25.2175C31.3881 23.9883 30.9308 22.8157 30.2422 21.78C29.4559 20.657 28.4064 19.7448 27.186 19.1236C25.9656 18.5024 24.6116 18.1912 23.2431 18.2175C20.3593 18.2175 17.7872 19.5613 16.2284 21.7644C15.5267 22.7974 15.0732 23.9794 14.9034 25.2175C14.7007 26.53 14.7475 27.9831 15.1528 29.4831C15.901 32.78 17.9275 36.53 21.1543 40.5769C19.5541 42.5084 17.6412 44.1564 15.4957 45.4519C14.2019 46.2019 12.9704 46.5925 11.7234 46.7488C9.78403 46.9978 7.825 46.4694 6.27212 45.2786C4.71924 44.0878 3.69802 42.3308 3.43045 40.3894C3.27456 39.1394 3.38368 37.8894 3.8825 36.4831C4.03839 35.9831 4.27221 35.4831 4.52162 34.8894C4.86456 34.0769 5.26986 33.2331 5.65956 32.3894L5.72192 32.28C9.08897 24.8269 12.7678 17.2175 16.5869 9.76438L16.7428 9.45188C17.1325 8.70188 17.5222 7.905 17.9275 7.155C18.3328 6.35813 18.7693 5.5925 19.3304 4.9675C19.8162 4.38629 20.4231 3.91887 21.1086 3.59815C21.794 3.27744 22.5412 3.11124 23.2976 3.11124C24.0541 3.11124 24.8013 3.27744 25.4867 3.59815C26.1722 3.91887 26.7791 4.38629 27.2649 4.9675C27.8104 5.5925 28.2625 6.35813 28.6678 7.155C29.0575 7.905 29.4472 8.7175 29.8525 9.45188L30.0084 9.76438C33.8119 17.2175 37.4907 24.8269 40.9202 32.28L40.9669 32.3269C41.3722 33.1394 41.7151 34.0456 42.1049 34.8269C42.3543 35.4363 42.6037 35.9206 42.7596 36.4363C43.0557 37.8425 43.2116 39.0925 43.0557 40.3425ZM64.7546 37.6863C63.5799 37.7035 62.4165 37.4554 61.3506 36.9604C60.2846 36.4654 59.3436 35.7362 58.5972 34.8269C56.92 32.8893 56.0299 30.3911 56.1031 27.8269C56.0774 25.2069 56.9963 22.6657 58.6907 20.6706C59.4745 19.7497 60.4502 19.0122 61.549 18.5101C62.6478 18.008 63.8431 17.7534 65.0507 17.7644C66.187 17.7332 67.3125 17.9922 68.3215 18.517C69.3304 19.0418 70.1897 19.8152 70.8184 20.7644L70.9743 18.3113H75.526V37.1863H70.9587L70.8028 34.4363C70.1546 35.4498 69.2587 36.2804 68.2001 36.8492C67.1415 37.418 65.9555 37.7062 64.7546 37.6863ZM65.9393 33.1863C66.8434 33.1863 67.6384 32.9363 68.3866 32.4831C69.0725 31.9831 69.6337 31.3269 70.0701 30.53C70.4598 29.7331 70.6625 28.78 70.6625 27.7175C70.7233 26.7947 70.5441 25.8719 70.1424 25.0393C69.7407 24.2067 69.1304 23.4928 68.371 22.9675C67.6414 22.5118 66.7989 22.2703 65.9393 22.2703C65.0796 22.2703 64.2371 22.5118 63.5075 22.9675C62.8216 23.4675 62.2604 24.1238 61.824 24.9206C61.4117 25.7994 61.209 26.7623 61.2316 27.7331C61.1708 28.6559 61.35 29.5788 61.7517 30.4114C62.1534 31.244 62.7637 31.9578 63.5231 32.4831C64.2557 32.9363 65.0507 33.1863 65.9393 33.1863ZM83.3201 13.2175C83.3201 13.7644 83.2266 14.2644 82.9772 14.6706C82.7278 15.0613 82.3848 15.4206 81.9328 15.6706C81.4807 15.9206 80.9975 16.0144 80.4987 16.0144C79.9998 16.0144 79.501 15.9206 79.049 15.6706C78.6214 15.4321 78.2619 15.0878 78.0046 14.6706C77.7631 14.2255 77.6447 13.7239 77.6616 13.2175C77.6616 12.655 77.7707 12.155 78.0046 11.7644C78.254 11.2956 78.6125 11.0144 79.049 10.7644C79.501 10.5144 79.9843 10.405 80.4987 10.405C80.9949 10.3935 81.4855 10.5113 81.9227 10.7469C82.3599 10.9824 82.7286 11.3276 82.9928 11.7488C83.2196 12.2043 83.332 12.7085 83.3201 13.2175ZM78.0201 37.1238V18.28H82.9772V37.155H78.0046L78.0201 37.1238ZM96.2272 23.2175V23.28C95.9934 23.1706 95.6816 23.1238 95.4478 23.0769C95.136 23.0144 94.8866 23.0144 94.5904 23.0144C93.2031 23.0144 92.1587 23.4206 91.4728 24.2644C90.7246 25.1238 90.3816 26.3269 90.3816 27.8738V37.1394H85.409V18.2644H89.9763L90.1322 21.1238C90.631 20.1238 91.2234 19.3738 92.0651 18.8113C92.9024 18.2647 93.8882 17.9918 94.8866 18.03C95.2451 18.03 95.5881 18.0613 95.8843 18.1238C96.0401 18.1706 96.1337 18.1706 96.2272 18.2175V23.2175ZM98.2225 37.1238V10.53H103.18V20.6863C103.881 19.78 104.676 19.0769 105.674 18.53C107.253 17.7538 109.047 17.5336 110.767 17.905C112.486 18.2764 114.031 19.2176 115.151 20.5769C116.832 22.5184 117.723 25.023 117.645 27.5925C117.671 30.2125 116.752 32.7537 115.058 34.7488C114.274 35.6697 113.298 36.4071 112.2 36.9093C111.101 37.4114 109.905 37.6659 108.698 37.655C107.562 37.6862 106.436 37.4272 105.427 36.9024C104.418 36.3776 103.559 35.6042 102.93 34.655L102.774 37.1081L98.2225 37.155V37.1238ZM107.809 33.1863C108.698 33.1863 109.493 32.9363 110.241 32.4831C110.927 31.9831 111.488 31.3269 111.925 30.53C112.33 29.7331 112.517 28.78 112.517 27.7175C112.517 26.6706 112.33 25.7175 111.925 24.9206C111.515 24.1522 110.94 23.485 110.241 22.9675C109.511 22.5118 108.669 22.2703 107.809 22.2703C106.95 22.2703 106.107 22.5118 105.377 22.9675C104.676 23.4675 104.13 24.1238 103.678 24.9206C103.266 25.7994 103.063 26.7623 103.086 27.7331C103.025 28.6559 103.204 29.5788 103.606 30.4114C104.008 31.244 104.618 31.9578 105.377 32.4831C106.11 32.9363 106.905 33.1863 107.809 33.1863ZM119.516 37.1394V18.2644H124.083L124.239 20.7175C124.813 19.7772 125.627 19.0076 126.598 18.4884C127.568 17.9692 128.659 17.7193 129.757 17.7644C131.014 17.7426 132.249 18.0927 133.308 18.7708C134.367 19.4489 135.204 20.425 135.712 21.5769C136.258 22.7644 136.554 24.2331 136.554 25.8738V37.1863H131.581V26.53C131.581 25.2175 131.285 24.1863 130.693 23.4206C130.1 22.6706 129.29 22.2644 128.261 22.2644C127.513 22.2644 126.858 22.4206 126.281 22.7644C125.736 23.1238 125.284 23.5769 124.941 24.2175C124.594 24.8651 124.422 25.5922 124.442 26.3269V37.1394H119.516ZM139.033 37.1394V10.5144H144.005V20.6706C144.679 19.7593 145.555 19.0179 146.564 18.5053C147.573 17.9927 148.688 17.723 149.82 17.7175C150.994 17.7003 152.158 17.9484 153.224 18.4434C154.289 18.9384 155.231 19.6676 155.977 20.5769C157.646 22.5183 158.53 25.0152 158.455 27.5769C158.482 30.1971 157.563 32.7388 155.868 34.7331C155.084 35.654 154.108 36.3915 153.01 36.8936C151.911 37.3958 150.715 37.6503 149.508 37.6394C148.372 37.6706 147.246 37.4116 146.237 36.8868C145.228 36.362 144.369 35.5886 143.74 34.6394L143.6 37.0925L139.033 37.1394ZM148.666 33.1863C149.57 33.1863 150.365 32.9363 151.098 32.4831C151.799 31.9831 152.345 31.3269 152.797 30.53C153.187 29.7331 153.389 28.78 153.389 27.7175C153.45 26.7947 153.271 25.8719 152.869 25.0393C152.467 24.2067 151.857 23.4928 151.098 22.9675C150.368 22.5118 149.526 22.2703 148.666 22.2703C147.806 22.2703 146.964 22.5118 146.234 22.9675C145.548 23.4675 144.987 24.1238 144.551 24.9206C144.116 25.7916 143.912 26.7602 143.958 27.7331C143.898 28.6559 144.077 29.5788 144.478 30.4114C144.88 31.244 145.49 31.9578 146.25 32.4831C146.982 32.9363 147.731 33.1863 148.666 33.1863Z" fill="#FF385C"/>
</g>
<defs>
<clipPath id="clip0_34_1670">
<rect width="159" height="50" fill="white"/>
</clipPath>
</defs>
</svg>
