<svg width="146" height="50" viewBox="0 0 146 50" fill="none" xmlns="http://www.w3.org/2000/svg">
<path d="M62.1302 25.6413C62.1302 32.5815 56.7679 37.6956 50.1872 37.6956C43.6064 37.6956 38.2441 32.5815 38.2441 25.6413C38.2441 18.6521 43.6064 13.5869 50.1872 13.5869C56.7679 13.5869 62.1302 18.6521 62.1302 25.6413ZM56.9021 25.6413C56.9021 21.3043 53.7942 18.3369 50.1872 18.3369C46.5801 18.3369 43.4722 21.3043 43.4722 25.6413C43.4722 29.9347 46.5801 32.9456 50.1872 32.9456C53.7942 32.9456 56.9021 29.9293 56.9021 25.6413Z" fill="#EA4335"/>
<path d="M87.8958 25.6413C87.8958 32.5815 82.5335 37.6956 75.9528 37.6956C69.372 37.6956 64.0098 32.5815 64.0098 25.6413C64.0098 18.6576 69.372 13.5869 75.9528 13.5869C82.5335 13.5869 87.8958 18.6521 87.8958 25.6413ZM82.6677 25.6413C82.6677 21.3043 79.5598 18.3369 75.9528 18.3369C72.3457 18.3369 69.2379 21.3043 69.2379 25.6413C69.2379 29.9347 72.3457 32.9456 75.9528 32.9456C79.5598 32.9456 82.6677 29.9293 82.6677 25.6413Z" fill="#FBBC05"/>
<path d="M112.587 14.3152V35.9565C112.587 44.8587 107.402 48.4945 101.272 48.4945C95.5017 48.4945 92.0288 44.5869 90.7191 41.3913L95.2709 39.4728C96.0814 41.4347 98.0674 43.75 101.267 43.75C105.19 43.75 107.622 41.2989 107.622 36.6847V34.951H107.439C106.269 36.413 104.015 37.6902 101.17 37.6902C95.2172 37.6902 89.7637 32.4402 89.7637 25.6847C89.7637 18.8804 95.2172 13.5869 101.17 13.5869C104.009 13.5869 106.264 14.8641 107.439 16.2826H107.622V14.3206H112.587V14.3152ZM107.992 25.6847C107.992 21.4402 105.196 18.3369 101.637 18.3369C98.0299 18.3369 95.0079 21.4402 95.0079 25.6847C95.0079 29.8858 98.0299 32.9456 101.637 32.9456C105.196 32.9456 107.992 29.8858 107.992 25.6847Z" fill="#4285F4"/>
<path d="M120.771 1.63043V36.9565H115.672V1.63043H120.771Z" fill="#34A853"/>
<path d="M140.642 29.6087L144.7 32.3478C143.391 34.3097 140.235 37.6902 134.781 37.6902C128.018 37.6902 122.967 32.3967 122.967 25.6358C122.967 18.4674 128.061 13.5815 134.196 13.5815C140.374 13.5815 143.396 18.5597 144.384 21.25L144.926 22.6195L129.011 29.2934C130.229 31.7119 132.124 32.9456 134.781 32.9456C137.443 32.9456 139.29 31.6195 140.642 29.6087ZM128.152 25.2717L138.791 20.7989C138.206 19.2934 136.445 18.2445 134.373 18.2445C131.716 18.2445 128.018 20.6195 128.152 25.2717Z" fill="#EA4335"/>
<path d="M18.9426 22.5054V17.3912H35.9634C36.1298 18.2825 36.2156 19.3369 36.2156 20.4782C36.2156 24.3152 35.1797 29.0597 31.841 32.4402C28.5936 35.8641 24.4444 37.6902 18.9479 37.6902C8.76012 37.6902 0.193359 29.288 0.193359 18.9728C0.193359 8.65754 8.76012 0.255371 18.9479 0.255371C24.5839 0.255371 28.5989 2.4945 31.6156 5.41298L28.0514 9.02168C25.8883 6.96733 22.9576 5.3695 18.9426 5.3695C11.503 5.3695 5.68446 11.4402 5.68446 18.9728C5.68446 26.5054 11.503 32.576 18.9426 32.576C23.7681 32.576 26.5163 30.6141 28.2769 28.8315C29.7047 27.3858 30.644 25.3206 31.0144 22.4999L18.9426 22.5054Z" fill="#4285F4"/>
</svg>
